<!-- Generator: Adobe Illustrator 20.1.0, SVG Export Plug-In  -->
<svg version="1.1"
	 xmlns="http://www.w3.org/2000/svg" xmlns:xlink="http://www.w3.org/1999/xlink" xmlns:a="http://ns.adobe.com/AdobeSVGViewerExtensions/3.0/"
	 x="0px" y="0px" width="288px" height="50.257px" viewBox="0 0 288 50.257" style="enable-background:new 0 0 288 50.257;"
	 xml:space="preserve">
<style type="text/css">
	.st0{fill:#E75300;}
	.st1{fill:#00ADBB;}
	.st2{fill:url(#SVGID_1_);}
	.st3{fill:#435363;}
	.st4{fill:url(#SVGID_2_);}
</style>
<defs>
</defs>
<g>
	<g>
		<polygon class="st0" points="88.997,0 59.983,0 51.752,14.256 47.118,22.329 56.546,27.739 58.028,25.127 66.259,10.87 
			82.721,10.87 90.952,25.127 82.721,39.383 66.259,39.383 60.564,29.72 54.289,40.592 59.983,50.254 88.997,50.254 103.504,25.127 
					"/>
		<polygon class="st1" points="14.507,50.254 43.521,50.254 51.752,35.997 56.526,27.728 47.098,22.318 45.476,25.127 
			45.476,25.127 45.476,25.127 37.245,39.383 20.783,39.383 12.552,25.127 20.783,10.87 37.245,10.87 42.891,20.609 49.167,9.738 
			43.521,0 14.507,0 0,25.127 		"/>
		
			<linearGradient id="SVGID_1_" gradientUnits="userSpaceOnUse" x1="2774.8911" y1="-487.2724" x2="2762.7969" y2="-467.6193" gradientTransform="matrix(-1 0 0 -1 2820.4219 -452.0356)">
			<stop  offset="4.810653e-04" style="stop-color:#00ADBB"/>
			<stop  offset="1" style="stop-color:#E75300"/>
		</linearGradient>
		<polygon class="st2" points="66.259,10.87 59.983,0 37.245,39.383 43.521,50.254 		"/>
	</g>
	<g>
		<g>
			<g>
				<path class="st3" d="M160.664,33.956l-6.754-8.577c-0.404,0.052-0.807,0.052-1.262,0.052l-5.181,0.01v8.516h-6.902V0h13.667
					c9.133,0,14.33,4.474,14.33,12.394c0,5.656-2.473,9.719-7.014,11.673l7.77,9.889H160.664z M147.467,19.365h6.403
					c5.717,0,8.155-2.551,8.155-6.765s-2.659-6.524-8.155-6.524h-6.403V19.365z"/>
				<path class="st3" d="M136.941,12.411c0,8.24-5.202,13.03-14.266,13.03h-6.832v8.515h-6.902V0h13.734
					C131.739,0,136.941,4.481,136.941,12.411z M130.4,12.618c0-4.43-2.936-6.542-8.086-6.542h-6.472v13.289h6.472
					C127.464,19.365,130.4,17.15,130.4,12.618z"/>
				<path class="st3" d="M179.998,0v33.956h-6.901V0H179.998z"/>
				<path class="st3" d="M212.761,1.678l-9.336,13.753l-9.358-13.785C193.376,0.554,192.063,0,190.771,0h-6.061v33.956h6.902V10.308
					l11.816,17.416l11.833-17.416l0.051,23.648h6.859V0h-6.063C214.812,0,213.452,0.582,212.761,1.678z"/>
				<path class="st3" d="M250.409,27.88h-16.24l-1.639,3.789c-0.594,1.387-1.958,2.287-3.467,2.287h-5.049l13.778-31.688
					C238.391,0.891,239.694,0,241.195,0h2.215c1.508,0,2.77,0.899,3.364,2.285l13.816,31.671h-5.094
					c-1.509,0-2.842-0.899-3.436-2.286L250.409,27.88z M247.764,21.805L242.292,9.26l-5.472,12.545H247.764z"/>
				<path class="st3" d="M269.303,0v27.518H288v6.438h-25.598V0H269.303z"/>
			</g>
			<g>
				<path class="st3" d="M140.565,50.254V36.681h2.501v11.227h10.291l1.342,2.346H140.565z"/>
				<polygon class="st3" points="183.917,36.681 181.047,36.681 173.039,50.254 175.928,50.254 177.654,47.345 184.52,47.345 
					183.182,45.019 178.992,45.019 179.36,44.437 182.482,38.872 185.623,44.437 185.972,45.019 187.31,47.345 189.054,50.254 
					191.943,50.254 				"/>
				<path class="st3" d="M224.011,43.06c1.125-0.543,1.862-1.396,1.862-2.928c0-2.54-1.959-3.451-4.944-3.451h-10.742v13.573h11.769
					c3.491,0,4.886-1.532,4.886-3.761C226.842,44.514,225.679,43.526,224.011,43.06z M221.956,47.908h-9.268v-3.471V42.11v-3.102
					h8.241c1.803,0,2.598,0.427,2.598,1.57c0,1.202-0.93,1.532-2.812,1.532h-5.855l1.337,2.327h5.526
					c1.822,0,2.773,0.407,2.773,1.706C224.497,47.307,223.779,47.908,221.956,47.908z"/>
				<path class="st3" d="M253.481,42.314c-3.016-0.211-5.266-0.105-5.266-1.653c0-1.826,2.853-1.647,4.576-1.647
					c2.616,0,7.586,0.013,7.797,0.013v-2.342h-7.39c-4.994,0-7.523,0.56-7.523,4.128c0,3.789,3.926,3.585,7.808,3.846
					c3.037,0.204,5.28,0.081,5.28,1.612c0,1.919-2.433,1.647-5.041,1.647c-2.87,0-7.878-0.012-7.878-0.012l1.342,2.352
					c0,0,3.529,0,6.089,0c5.475,0,8.027-0.57,8.027-3.987C261.303,42.372,257.279,42.579,253.481,42.314z"/>
			</g>
		</g>
	</g>
</g>
</svg>